<?xml version="1.0" standalone="no"?>
<!DOCTYPE svg PUBLIC "-//W3C//DTD SVG 20010904//EN"
 "http://www.w3.org/TR/2001/REC-SVG-20010904/DTD/svg10.dtd">
<svg version="1.0" xmlns="http://www.w3.org/2000/svg"
 width="512.000000pt" height="512.000000pt" viewBox="0 0 512.000000 512.000000"
 preserveAspectRatio="xMidYMid meet">
<metadata>
Created by potrace 1.14, written by Peter Selinger 2001-2017
</metadata>
<g transform="translate(0.000000,512.000000) scale(0.100000,-0.100000)"
fill="#000000" stroke="none">
<path d="M3780 2790 c-286 -40 -498 -212 -566 -460 -24 -88 -24 -270 0 -360
52 -192 168 -329 378 -446 40 -23 143 -72 228 -109 294 -128 354 -166 394
-247 34 -68 34 -128 1 -195 -44 -87 -131 -133 -270 -141 -198 -10 -345 61
-461 224 l-46 64 -32 -19 c-17 -10 -103 -60 -191 -111 -88 -51 -162 -94 -164
-96 -7 -6 49 -93 103 -160 198 -247 545 -369 921 -323 336 41 572 232 631 509
21 101 14 288 -15 380 -43 138 -147 266 -296 365 -96 64 -171 101 -375 190
-192 82 -248 114 -294 166 -46 50 -56 76 -56 144 0 90 34 145 115 188 48 25
146 29 218 8 55 -16 136 -84 177 -148 l27 -42 179 115 c98 63 182 118 186 122
13 13 -76 134 -150 204 -82 77 -196 137 -307 162 -90 19 -252 27 -335 16z"/>
<path d="M2308 1898 c-3 -655 -7 -882 -16 -909 -32 -96 -98 -146 -204 -156
-131 -12 -219 38 -303 171 l-47 74 -191 -116 c-106 -64 -194 -117 -195 -118
-2 -1 11 -31 29 -66 22 -40 67 -96 124 -154 74 -75 105 -99 175 -133 137 -67
219 -84 395 -84 119 0 166 5 225 21 251 68 391 207 463 462 21 73 21 93 25
978 l3 902 -240 0 -240 0 -3 -872z"/>
</g>
</svg>
